<svg width="33" height="33" viewBox="0 0 33 33" fill="none" xmlns="http://www.w3.org/2000/svg">
<path d="M24.5001 10.8889C24.5001 8.72295 23.6397 6.64573 22.1082 5.11419C20.5766 3.58264 18.4994 2.72223 16.3334 2.72223C14.1675 2.72223 12.0903 3.58264 10.5587 5.11419C9.02714 6.64573 8.16673 8.72295 8.16673 10.8889C8.16673 20.4166 4.08337 23.1389 4.08337 23.1389H28.5835C28.5835 23.1389 24.5001 20.4166 24.5001 10.8889Z" stroke="black" stroke-width="2" stroke-linecap="round" stroke-linejoin="round"/>
<path d="M18.6881 28.5834C18.4488 28.9959 18.1053 29.3383 17.6921 29.5764C17.2788 29.8144 16.8103 29.9397 16.3334 29.9397C15.8565 29.9397 15.3879 29.8144 14.9747 29.5764C14.5614 29.3383 14.2179 28.9959 13.9786 28.5834" stroke="black" stroke-width="2" stroke-linecap="round" stroke-linejoin="round"/>
<ellipse cx="23.3334" cy="5.83337" rx="4.66669" ry="4.66668" fill="#FD633D"/>
</svg>
